<svg width="518" height="255" viewBox="0 0 518 255" fill="none" xmlns="http://www.w3.org/2000/svg">
<path d="M0 1.45454H15.7273L26.5455 27.8182H27.0909L37.9091 1.45454H53.6364V48H41.2727V21.0909H40.9091L30.5455 47.6364H23.0909L12.7273 20.9091H12.3636V48H0V1.45454ZM104.716 24.7273C104.716 29.9091 103.708 34.2803 101.693 37.8409C99.678 41.3864 96.9583 44.0758 93.5341 45.9091C90.1098 47.7273 86.2917 48.6364 82.0795 48.6364C77.8371 48.6364 74.0038 47.7197 70.5795 45.8864C67.1705 44.0379 64.4583 41.3409 62.4432 37.7955C60.4432 34.2348 59.4432 29.8788 59.4432 24.7273C59.4432 19.5455 60.4432 15.1818 62.4432 11.6364C64.4583 8.07576 67.1705 5.38636 70.5795 3.56818C74.0038 1.73485 77.8371 0.81818 82.0795 0.81818C86.2917 0.81818 90.1098 1.73485 93.5341 3.56818C96.9583 5.38636 99.678 8.07576 101.693 11.6364C103.708 15.1818 104.716 19.5455 104.716 24.7273ZM91.7159 24.7273C91.7159 21.9394 91.3447 19.5909 90.6023 17.6818C89.875 15.7576 88.7917 14.303 87.3523 13.3182C85.928 12.3182 84.1705 11.8182 82.0795 11.8182C79.9886 11.8182 78.2235 12.3182 76.7841 13.3182C75.3598 14.303 74.2765 15.7576 73.5341 17.6818C72.8068 19.5909 72.4432 21.9394 72.4432 24.7273C72.4432 27.5152 72.8068 29.8712 73.5341 31.7955C74.2765 33.7045 75.3598 35.1591 76.7841 36.1591C78.2235 37.1439 79.9886 37.6364 82.0795 37.6364C84.1705 37.6364 85.928 37.1439 87.3523 36.1591C88.7917 35.1591 89.875 33.7045 90.6023 31.7955C91.3447 29.8712 91.7159 27.5152 91.7159 24.7273ZM150.835 1.45454V48H140.29L123.472 23.5455H123.199V48H110.562V1.45454H121.29L137.835 25.8182H138.199V1.45454H150.835ZM156.812 48V1.45454H190.358V11.6364H169.449V19.6364H188.631V29.8182H169.449V37.8182H190.267V48H156.812ZM194.716 1.45454H208.807L217.898 20.3636H218.261L227.352 1.45454H241.443L224.352 33.3636V48H211.807V33.3636L194.716 1.45454ZM270.949 1.45454V48H258.312V1.45454H270.949ZM317.21 1.45454V48H306.665L289.847 23.5455H289.574V48H276.938V1.45454H287.665L304.21 25.8182H304.574V1.45454H317.21ZM334.028 1.45454H348.119L357.21 20.3636H357.574L366.665 1.45454H380.756L363.665 33.3636V48H351.119V33.3636L334.028 1.45454ZM426.716 24.7273C426.716 29.9091 425.708 34.2803 423.693 37.8409C421.678 41.3864 418.958 44.0758 415.534 45.9091C412.11 47.7273 408.292 48.6364 404.08 48.6364C399.837 48.6364 396.004 47.7197 392.58 45.8864C389.17 44.0379 386.458 41.3409 384.443 37.7955C382.443 34.2348 381.443 29.8788 381.443 24.7273C381.443 19.5455 382.443 15.1818 384.443 11.6364C386.458 8.07576 389.17 5.38636 392.58 3.56818C396.004 1.73485 399.837 0.81818 404.08 0.81818C408.292 0.81818 412.11 1.73485 415.534 3.56818C418.958 5.38636 421.678 8.07576 423.693 11.6364C425.708 15.1818 426.716 19.5455 426.716 24.7273ZM413.716 24.7273C413.716 21.9394 413.345 19.5909 412.602 17.6818C411.875 15.7576 410.792 14.303 409.352 13.3182C407.928 12.3182 406.17 11.8182 404.08 11.8182C401.989 11.8182 400.223 12.3182 398.784 13.3182C397.36 14.303 396.277 15.7576 395.534 17.6818C394.807 19.5909 394.443 21.9394 394.443 24.7273C394.443 27.5152 394.807 29.8712 395.534 31.7955C396.277 33.7045 397.36 35.1591 398.784 36.1591C400.223 37.1439 401.989 37.6364 404.08 37.6364C406.17 37.6364 407.928 37.1439 409.352 36.1591C410.792 35.1591 411.875 33.7045 412.602 31.7955C413.345 29.8712 413.716 27.5152 413.716 24.7273ZM460.108 1.45454H472.744V31.2727C472.744 34.8182 471.896 37.8864 470.199 40.4773C468.517 43.053 466.169 45.0455 463.153 46.4545C460.138 47.8485 456.638 48.5455 452.653 48.5455C448.638 48.5455 445.123 47.8485 442.108 46.4545C439.093 45.0455 436.744 43.053 435.062 40.4773C433.396 37.8864 432.562 34.8182 432.562 31.2727V1.45454H445.199V30.1818C445.199 31.6212 445.517 32.9091 446.153 34.0455C446.79 35.1667 447.669 36.0455 448.79 36.6818C449.926 37.3182 451.214 37.6364 452.653 37.6364C454.108 37.6364 455.396 37.3182 456.517 36.6818C457.638 36.0455 458.517 35.1667 459.153 34.0455C459.79 32.9091 460.108 31.6212 460.108 30.1818V1.45454ZM478.75 48V1.45454H498.841C502.295 1.45454 505.318 2.08333 507.909 3.34091C510.5 4.59848 512.515 6.40909 513.955 8.77273C515.394 11.1364 516.114 13.9697 516.114 17.2727C516.114 20.6061 515.371 23.4167 513.886 25.7045C512.417 27.9924 510.348 29.7197 507.682 30.8864C505.03 32.053 501.932 32.6364 498.386 32.6364H486.386V22.8182H495.841C497.326 22.8182 498.591 22.6364 499.636 22.2727C500.697 21.8939 501.508 21.2955 502.068 20.4773C502.644 19.6591 502.932 18.5909 502.932 17.2727C502.932 15.9394 502.644 14.8561 502.068 14.0227C501.508 13.1742 500.697 12.553 499.636 12.1591C498.591 11.75 497.326 11.5455 495.841 11.5455H491.386V48H478.75ZM506.023 26.6364L517.659 48H503.932L492.568 26.6364H506.023ZM2.95312 156V63.6364H43.0014C50.0369 63.6364 55.945 64.5835 60.7255 66.4776C65.5361 68.3718 69.1591 71.0477 71.5945 74.5053C74.0599 77.9629 75.2926 82.0369 75.2926 86.7273C75.2926 90.1248 74.541 93.2216 73.0376 96.0178C71.5644 98.8139 69.4898 101.159 66.8139 103.053C64.138 104.917 61.0111 106.21 57.4332 106.932V107.834C61.402 107.984 65.0099 108.991 68.2571 110.855C71.5043 112.69 74.09 115.23 76.0142 118.477C77.9384 121.694 78.9006 125.483 78.9006 129.842C78.9006 134.893 77.5777 139.388 74.9318 143.327C72.3161 147.266 68.5878 150.363 63.7472 152.618C58.9065 154.873 53.1338 156 46.429 156H2.95312ZM28.0284 135.976H39.7543C43.9635 135.976 47.1205 135.194 49.2251 133.631C51.3298 132.037 52.3821 129.692 52.3821 126.595C52.3821 124.43 51.886 122.596 50.8938 121.093C49.9016 119.59 48.4885 118.447 46.6545 117.665C44.8505 116.884 42.6707 116.493 40.1151 116.493H28.0284V135.976ZM28.0284 100.979H38.3111C40.5059 100.979 42.4452 100.633 44.1289 99.9414C45.8126 99.2499 47.1205 98.2577 48.0526 96.9648C49.0147 95.6419 49.4957 94.0334 49.4957 92.1392C49.4957 89.2829 48.4735 87.1031 46.429 85.5998C44.3845 84.0664 41.7988 83.2997 38.6719 83.2997H28.0284V100.979ZM111.778 156H84.7184L115.206 63.6364H149.481L179.968 156H152.909L132.704 89.0724H131.983L111.778 156ZM106.727 119.56H157.599V138.321H106.727V119.56ZM268.78 63.6364V156H247.854L214.481 107.473H213.94V156H188.864V63.6364H210.151L242.984 111.983H243.705V63.6364H268.78ZM280.642 156V63.6364H305.717V100.979H306.98L334.761 63.6364H363.985L332.777 104.767L364.707 156H334.761L314.015 121.364L305.717 132.188V156H280.642ZM421.803 63.6364V156H396.728V63.6364H421.803ZM513.603 63.6364V156H492.677L459.303 107.473H458.762V156H433.687V63.6364H454.973L487.806 111.983H488.527V63.6364H513.603Z" fill="white"/>
<path d="M0.460227 244.455V231.568L25.0398 192.909H36.733V210.091H30.0511L16.8068 231.091V231.568H53.0795V244.455H0.460227ZM30.1705 254V240.517L30.5284 234.909V192.909H46.0398V254H30.1705ZM84.9748 254.835C80.043 254.835 75.6381 254.07 71.7603 252.538C67.9023 251.007 64.8597 248.929 62.6325 246.304C60.4251 243.679 59.3214 240.716 59.3214 237.415C59.3214 234.889 59.9478 232.582 61.2006 230.494C62.4734 228.406 64.1836 226.676 66.3313 225.304C68.479 223.912 70.8754 223.017 73.5202 222.619V222.142C70.0401 221.545 67.1765 220.004 64.9293 217.518C62.7021 215.013 61.5884 212.06 61.5884 208.659C61.5884 205.457 62.6026 202.614 64.631 200.128C66.6594 197.622 69.4336 195.653 72.9535 194.222C76.4734 192.79 80.4805 192.074 84.9748 192.074C89.4691 192.074 93.4762 192.8 96.9961 194.251C100.516 195.683 103.29 197.652 105.319 200.158C107.347 202.643 108.361 205.477 108.361 208.659C108.361 212.08 107.228 215.033 104.961 217.518C102.694 220.004 99.8498 221.545 96.4293 222.142V222.619C99.0543 223.017 101.441 223.912 103.588 225.304C105.736 226.676 107.446 228.406 108.719 230.494C109.992 232.582 110.628 234.889 110.628 237.415C110.628 240.716 109.515 243.679 107.287 246.304C105.08 248.929 102.037 251.007 98.1594 252.538C94.3015 254.07 89.9066 254.835 84.9748 254.835ZM84.9748 243.381C86.5458 243.381 87.9379 243.062 89.1509 242.426C90.364 241.79 91.3185 240.915 92.0146 239.801C92.7305 238.668 93.0884 237.395 93.0884 235.983C93.0884 234.571 92.7305 233.318 92.0146 232.224C91.3185 231.131 90.364 230.276 89.1509 229.659C87.9379 229.023 86.5458 228.705 84.9748 228.705C83.4237 228.705 82.0316 229.023 80.7987 229.659C79.5856 230.276 78.6211 231.131 77.9052 232.224C77.2092 233.318 76.8612 234.571 76.8612 235.983C76.8612 237.395 77.2092 238.658 77.9052 239.771C78.6211 240.885 79.5856 241.77 80.7987 242.426C82.0316 243.062 83.4237 243.381 84.9748 243.381ZM84.9748 217.25C86.3668 217.25 87.5998 216.962 88.6737 216.385C89.7475 215.808 90.5927 215.013 91.2092 213.999C91.8256 212.984 92.1339 211.841 92.1339 210.568C92.1339 209.295 91.8256 208.172 91.2092 207.197C90.5927 206.203 89.7475 205.428 88.6737 204.871C87.5998 204.294 86.3668 204.006 84.9748 204.006C83.6026 204.006 82.3697 204.294 81.2759 204.871C80.2021 205.428 79.3569 206.203 78.7404 207.197C78.1239 208.172 77.8157 209.295 77.8157 210.568C77.8157 211.841 78.1239 212.984 78.7404 213.999C79.3569 214.993 80.2021 215.788 81.2759 216.385C82.3697 216.962 83.6026 217.25 84.9748 217.25ZM134.648 254V192.909H151.234V216.773H173.188V192.909H189.773V254H173.188V230.136H151.234V254H134.648ZM256.83 223.455C256.83 230.256 255.508 235.993 252.863 240.666C250.218 245.32 246.648 248.849 242.154 251.256C237.66 253.642 232.648 254.835 227.12 254.835C221.552 254.835 216.521 253.632 212.026 251.226C207.552 248.8 203.992 245.26 201.347 240.607C198.722 235.933 197.41 230.216 197.41 223.455C197.41 216.653 198.722 210.926 201.347 206.273C203.992 201.599 207.552 198.07 212.026 195.683C216.521 193.277 221.552 192.074 227.12 192.074C232.648 192.074 237.66 193.277 242.154 195.683C246.648 198.07 250.218 201.599 252.863 206.273C255.508 210.926 256.83 216.653 256.83 223.455ZM239.768 223.455C239.768 219.795 239.281 216.713 238.306 214.207C237.352 211.682 235.93 209.773 234.04 208.48C232.171 207.168 229.864 206.511 227.12 206.511C224.376 206.511 222.059 207.168 220.17 208.48C218.3 209.773 216.879 211.682 215.904 214.207C214.95 216.713 214.472 219.795 214.472 223.455C214.472 227.114 214.95 230.206 215.904 232.732C216.879 235.237 218.3 237.146 220.17 238.459C222.059 239.751 224.376 240.398 227.12 240.398C229.864 240.398 232.171 239.751 234.04 238.459C235.93 237.146 237.352 235.237 238.306 232.732C239.281 230.206 239.768 227.114 239.768 223.455ZM300.657 192.909H317.243V232.045C317.243 236.699 316.129 240.726 313.902 244.126C311.694 247.507 308.612 250.122 304.654 251.972C300.697 253.801 296.103 254.716 290.873 254.716C285.603 254.716 280.99 253.801 277.032 251.972C273.075 250.122 269.993 247.507 267.785 244.126C265.598 240.726 264.504 236.699 264.504 232.045V192.909H281.089V230.614C281.089 232.503 281.507 234.193 282.342 235.685C283.177 237.156 284.331 238.31 285.802 239.145C287.294 239.98 288.984 240.398 290.873 240.398C292.782 240.398 294.473 239.98 295.944 239.145C297.416 238.31 298.569 237.156 299.404 235.685C300.24 234.193 300.657 232.503 300.657 230.614V192.909ZM325.125 254V192.909H351.494C356.028 192.909 359.996 193.734 363.396 195.385C366.797 197.036 369.442 199.412 371.331 202.514C373.22 205.616 374.165 209.335 374.165 213.67C374.165 218.045 373.19 221.734 371.241 224.737C369.313 227.74 366.598 230.007 363.098 231.538C359.618 233.07 355.551 233.835 350.898 233.835H335.148V220.949H347.557C349.506 220.949 351.166 220.71 352.538 220.233C353.93 219.736 354.994 218.95 355.73 217.876C356.486 216.803 356.864 215.401 356.864 213.67C356.864 211.92 356.486 210.499 355.73 209.405C354.994 208.291 353.93 207.476 352.538 206.959C351.166 206.422 349.506 206.153 347.557 206.153H341.71V254H325.125ZM360.92 225.96L376.193 254H358.176L343.261 225.96H360.92ZM414.166 212C414.007 210.011 413.261 208.46 411.929 207.347C410.616 206.233 408.618 205.676 405.933 205.676C404.223 205.676 402.821 205.885 401.727 206.303C400.653 206.7 399.858 207.247 399.341 207.943C398.824 208.639 398.555 209.435 398.536 210.33C398.496 211.065 398.625 211.732 398.923 212.328C399.241 212.905 399.739 213.432 400.415 213.909C401.091 214.366 401.956 214.784 403.01 215.162C404.064 215.54 405.317 215.878 406.768 216.176L411.78 217.25C415.161 217.966 418.054 218.911 420.46 220.084C422.866 221.257 424.835 222.639 426.366 224.23C427.898 225.801 429.021 227.571 429.737 229.54C430.473 231.509 430.851 233.656 430.871 235.983C430.851 240 429.847 243.401 427.858 246.185C425.869 248.969 423.026 251.087 419.327 252.538C415.648 253.99 411.223 254.716 406.053 254.716C400.743 254.716 396.109 253.93 392.152 252.359C388.214 250.788 385.152 248.372 382.964 245.111C380.797 241.83 379.703 237.634 379.683 232.523H395.433C395.533 234.392 396 235.963 396.835 237.236C397.67 238.509 398.844 239.473 400.355 240.129C401.886 240.786 403.706 241.114 405.814 241.114C407.584 241.114 409.065 240.895 410.259 240.457C411.452 240.02 412.357 239.413 412.973 238.638C413.589 237.862 413.908 236.977 413.928 235.983C413.908 235.048 413.599 234.233 413.003 233.537C412.426 232.821 411.472 232.185 410.139 231.628C408.807 231.051 407.007 230.514 404.74 230.017L398.655 228.705C393.246 227.531 388.98 225.572 385.858 222.828C382.756 220.064 381.214 216.295 381.234 211.523C381.214 207.645 382.249 204.254 384.337 201.351C386.445 198.428 389.358 196.151 393.077 194.52C396.815 192.889 401.101 192.074 405.933 192.074C410.865 192.074 415.131 192.899 418.73 194.55C422.33 196.2 425.104 198.527 427.053 201.53C429.021 204.513 430.016 208.003 430.036 212H414.166Z" fill="#13B440"/>
</svg>
