<svg width="524" height="276" viewBox="0 0 524 276" fill="none" xmlns="http://www.w3.org/2000/svg">
<path d="M0.921875 78V1.63636H34.0327C39.8494 1.63636 44.734 2.41939 48.6864 3.98544C52.6637 5.55149 55.6591 7.76385 57.6726 10.6225C59.7109 13.4812 60.7301 16.8494 60.7301 20.7273C60.7301 23.5362 60.1087 26.0966 58.8658 28.4084C57.6477 30.7202 55.9325 32.6591 53.7202 34.2251C51.5078 35.7663 48.9226 36.8352 45.9645 37.4318V38.1776C49.2457 38.3018 52.2287 39.1346 54.9134 40.6758C57.598 42.1921 59.7358 44.2926 61.3267 46.9773C62.9176 49.6371 63.7131 52.7692 63.7131 56.3736C63.7131 60.5497 62.6193 64.266 60.4318 67.5224C58.2692 70.7788 55.1868 73.3391 51.1847 75.2035C47.1825 77.0678 42.4098 78 36.8665 78H0.921875ZM21.6534 61.4446H31.348C34.8281 61.4446 37.4382 60.7983 39.1783 59.5057C40.9183 58.1882 41.7884 56.2493 41.7884 53.6889C41.7884 51.8991 41.3782 50.3828 40.5579 49.1399C39.7376 47.897 38.5692 46.9524 37.0529 46.3061C35.5614 45.6598 33.7592 45.3366 31.6463 45.3366H21.6534V61.4446ZM21.6534 32.5099H30.1548C31.9695 32.5099 33.5728 32.2241 34.9648 31.6523C36.3569 31.0806 37.4382 30.2603 38.2088 29.1914C39.0043 28.0977 39.402 26.7678 39.402 25.2017C39.402 22.8402 38.5568 21.038 36.8665 19.7951C35.1761 18.5273 33.0384 17.8935 30.4531 17.8935H21.6534V32.5099ZM116.25 1.63636H136.982V50.5568C136.982 56.3736 135.59 61.4073 132.806 65.658C130.047 69.8839 126.194 73.1527 121.247 75.4645C116.3 77.7514 110.558 78.8949 104.02 78.8949C97.4329 78.8949 91.6658 77.7514 86.7191 75.4645C81.7724 73.1527 77.9194 69.8839 75.1602 65.658C72.4258 61.4073 71.0586 56.3736 71.0586 50.5568V1.63636H91.7901V48.767C91.7901 51.1286 92.3121 53.2415 93.3562 55.1058C94.4002 56.9453 95.842 58.3871 97.6815 59.4311C99.5458 60.4751 101.659 60.9972 104.02 60.9972C106.407 60.9972 108.52 60.4751 110.359 59.4311C112.199 58.3871 113.64 56.9453 114.684 55.1058C115.728 53.2415 116.25 51.1286 116.25 48.767V1.63636ZM188 25.5C187.801 23.0142 186.869 21.0753 185.203 19.6832C183.563 18.2912 181.064 17.5952 177.709 17.5952C175.571 17.5952 173.818 17.8562 172.451 18.3782C171.109 18.8754 170.114 19.5589 169.468 20.429C168.822 21.299 168.486 22.2933 168.461 23.4119C168.412 24.3317 168.573 25.1644 168.946 25.9102C169.344 26.631 169.965 27.2898 170.81 27.8864C171.656 28.4581 172.737 28.9801 174.054 29.4524C175.372 29.9247 176.938 30.3473 178.753 30.7202L185.017 32.0625C189.243 32.9574 192.859 34.1381 195.867 35.6048C198.875 37.0714 201.336 38.799 203.25 40.7876C205.164 42.7514 206.569 44.9638 207.464 47.4247C208.383 49.8857 208.856 52.5703 208.88 55.4787C208.856 60.5 207.6 64.7507 205.114 68.2308C202.629 71.7109 199.074 74.3583 194.45 76.1729C189.852 77.9876 184.321 78.8949 177.858 78.8949C171.221 78.8949 165.429 77.913 160.482 75.9492C155.56 73.9854 151.732 70.9652 148.998 66.8885C146.288 62.7869 144.921 57.5419 144.896 51.1534H164.584C164.708 53.4901 165.292 55.4538 166.336 57.0447C167.38 58.6357 168.847 59.8413 170.736 60.6616C172.65 61.4819 174.924 61.892 177.559 61.892C179.772 61.892 181.624 61.6186 183.115 61.0717C184.607 60.5249 185.738 59.7667 186.508 58.7972C187.279 57.8278 187.677 56.7216 187.701 55.4787C187.677 54.3104 187.291 53.2912 186.546 52.4212C185.825 51.5263 184.631 50.7308 182.966 50.0348C181.301 49.3139 179.051 48.6428 176.217 48.0213L168.611 46.3807C161.849 44.9141 156.517 42.4656 152.614 39.0352C148.737 35.5799 146.81 30.8693 146.835 24.9034C146.81 20.0561 148.103 15.8178 150.713 12.1886C153.348 8.53444 156.989 5.68821 161.638 3.64985C166.311 1.6115 171.668 0.592327 177.709 0.592327C183.873 0.592327 189.205 1.62393 193.705 3.68714C198.204 5.75035 201.672 8.65874 204.108 12.4123C206.569 16.141 207.812 20.5035 207.836 25.5H188ZM237.498 1.63636V78H216.767V1.63636H237.498ZM313.396 1.63636V78H296.095L268.502 37.8793H268.055V78H247.323V1.63636H264.923L292.068 41.608H292.664V1.63636H313.396ZM323.202 78V1.63636H378.238V18.3409H343.934V31.4659H375.404V48.1705H343.934V61.2955H378.089V78H323.202ZM429.684 25.5C429.485 23.0142 428.553 21.0753 426.888 19.6832C425.247 18.2912 422.749 17.5952 419.393 17.5952C417.255 17.5952 415.503 17.8562 414.136 18.3782C412.793 18.8754 411.799 19.5589 411.153 20.429C410.506 21.299 410.171 22.2933 410.146 23.4119C410.096 24.3317 410.258 25.1644 410.631 25.9102C411.028 26.631 411.65 27.2898 412.495 27.8864C413.34 28.4581 414.422 28.9801 415.739 29.4524C417.056 29.9247 418.623 30.3473 420.437 30.7202L426.701 32.0625C430.927 32.9574 434.544 34.1381 437.552 35.6048C440.56 37.0714 443.021 38.799 444.935 40.7876C446.849 42.7514 448.253 44.9638 449.148 47.4247C450.068 49.8857 450.54 52.5703 450.565 55.4787C450.54 60.5 449.285 64.7507 446.799 68.2308C444.313 71.7109 440.759 74.3583 436.135 76.1729C431.536 77.9876 426.005 78.8949 419.542 78.8949C412.905 78.8949 407.113 77.913 402.167 75.9492C397.245 73.9854 393.417 70.9652 390.682 66.8885C387.973 62.7869 386.605 57.5419 386.581 51.1534H406.268C406.392 53.4901 406.977 55.4538 408.021 57.0447C409.065 58.6357 410.531 59.8413 412.42 60.6616C414.335 61.4819 416.609 61.892 419.244 61.892C421.456 61.892 423.308 61.6186 424.8 61.0717C426.291 60.5249 427.422 59.7667 428.193 58.7972C428.963 57.8278 429.361 56.7216 429.386 55.4787C429.361 54.3104 428.976 53.2912 428.23 52.4212C427.509 51.5263 426.316 50.7308 424.651 50.0348C422.985 49.3139 420.735 48.6428 417.902 48.0213L410.295 46.3807C403.534 44.9141 398.202 42.4656 394.299 39.0352C390.421 35.5799 388.495 30.8693 388.52 24.9034C388.495 20.0561 389.787 15.8178 392.397 12.1886C395.032 8.53444 398.674 5.68821 403.322 3.64985C407.996 1.6115 413.353 0.592327 419.393 0.592327C425.558 0.592327 430.89 1.62393 435.389 3.68714C439.888 5.75035 443.356 8.65874 445.792 12.4123C448.253 16.141 449.496 20.5035 449.521 25.5H429.684ZM499.616 25.5C499.417 23.0142 498.485 21.0753 496.819 19.6832C495.179 18.2912 492.681 17.5952 489.325 17.5952C487.187 17.5952 485.434 17.8562 484.067 18.3782C482.725 18.8754 481.731 19.5589 481.084 20.429C480.438 21.299 480.102 22.2933 480.078 23.4119C480.028 24.3317 480.189 25.1644 480.562 25.9102C480.96 26.631 481.581 27.2898 482.427 27.8864C483.272 28.4581 484.353 28.9801 485.671 29.4524C486.988 29.9247 488.554 30.3473 490.369 30.7202L496.633 32.0625C500.859 32.9574 504.476 34.1381 507.483 35.6048C510.491 37.0714 512.952 38.799 514.866 40.7876C516.78 42.7514 518.185 44.9638 519.08 47.4247C519.999 49.8857 520.472 52.5703 520.497 55.4787C520.472 60.5 519.216 64.7507 516.731 68.2308C514.245 71.7109 510.69 74.3583 506.067 76.1729C501.468 77.9876 495.937 78.8949 489.474 78.8949C482.837 78.8949 477.045 77.913 472.098 75.9492C467.176 73.9854 463.348 70.9652 460.614 66.8885C457.904 62.7869 456.537 57.5419 456.512 51.1534H476.2C476.324 53.4901 476.908 55.4538 477.952 57.0447C478.996 58.6357 480.463 59.8413 482.352 60.6616C484.266 61.4819 486.541 61.892 489.176 61.892C491.388 61.892 493.24 61.6186 494.731 61.0717C496.223 60.5249 497.354 59.7667 498.124 58.7972C498.895 57.8278 499.293 56.7216 499.318 55.4787C499.293 54.3104 498.907 53.2912 498.162 52.4212C497.441 51.5263 496.248 50.7308 494.582 50.0348C492.917 49.3139 490.667 48.6428 487.833 48.0213L480.227 46.3807C473.465 44.9141 468.133 42.4656 464.231 39.0352C460.353 35.5799 458.426 30.8693 458.451 24.9034C458.426 20.0561 459.719 15.8178 462.329 12.1886C464.964 8.53444 468.606 5.68821 473.254 3.64985C477.927 1.6115 483.284 0.592327 489.325 0.592327C495.49 0.592327 500.822 1.62393 505.321 3.68714C509.82 5.75035 513.288 8.65874 515.724 12.4123C518.185 16.141 519.428 20.5035 519.453 25.5H499.616ZM0.265625 160V93.8182H18.233V145.523H44.9901V160H0.265625ZM113.789 126.909C113.789 134.277 112.357 140.492 109.491 145.555C106.626 150.596 102.759 154.42 97.8903 157.027C93.0214 159.612 87.5924 160.905 81.6033 160.905C75.5711 160.905 70.1206 159.601 65.2518 156.995C60.4045 154.366 56.5482 150.532 53.6829 145.49C50.8391 140.428 49.4173 134.234 49.4173 126.909C49.4173 119.541 50.8391 113.337 53.6829 108.295C56.5482 103.233 60.4045 99.4087 65.2518 96.8235C70.1206 94.2167 75.5711 92.9133 81.6033 92.9133C87.5924 92.9133 93.0214 94.2167 97.8903 96.8235C102.759 99.4087 106.626 103.233 109.491 108.295C112.357 113.337 113.789 119.541 113.789 126.909ZM95.305 126.909C95.305 122.945 94.7772 119.606 93.7216 116.891C92.6875 114.155 91.1471 112.087 89.1005 110.687C87.0754 109.265 84.5764 108.554 81.6033 108.554C78.6303 108.554 76.1205 109.265 74.0739 110.687C72.0488 112.087 70.5084 114.155 69.4528 116.891C68.4187 119.606 67.9016 122.945 67.9016 126.909C67.9016 130.873 68.4187 134.223 69.4528 136.959C70.5084 139.674 72.0488 141.742 74.0739 143.164C76.1205 144.564 78.6303 145.264 81.6033 145.264C84.5764 145.264 87.0754 144.564 89.1005 143.164C91.1471 141.742 92.6875 139.674 93.7216 136.959C94.7772 134.223 95.305 130.873 95.305 126.909ZM135.118 160H115.728L137.574 93.8182H162.133L183.978 160H164.589L150.112 112.044H149.595L135.118 160ZM131.498 133.889H167.95V147.332H131.498V133.889ZM247.615 93.8182V160H232.621L208.708 125.229H208.32V160H190.353V93.8182H205.605L229.131 128.46H229.648V93.8182H247.615ZM313.409 93.8182H331.377V136.216C331.377 141.257 330.17 145.62 327.757 149.304C325.366 152.966 322.027 155.799 317.74 157.803C313.452 159.785 308.476 160.776 302.81 160.776C297.101 160.776 292.103 159.785 287.816 157.803C283.528 155.799 280.189 152.966 277.798 149.304C275.428 145.62 274.243 141.257 274.243 136.216V93.8182H292.21V134.665C292.21 136.711 292.663 138.543 293.568 140.158C294.473 141.753 295.722 143.002 297.316 143.907C298.932 144.812 300.763 145.264 302.81 145.264C304.878 145.264 306.709 144.812 308.304 143.907C309.898 143.002 311.147 141.753 312.052 140.158C312.957 138.543 313.409 136.711 313.409 134.665V93.8182ZM339.916 160V93.8182H368.483C373.395 93.8182 377.693 94.7876 381.377 96.7266C385.061 98.6655 387.926 101.391 389.972 104.902C392.019 108.414 393.042 112.518 393.042 117.214C393.042 121.954 391.987 126.058 389.876 129.527C387.786 132.995 384.845 135.667 381.053 137.541C377.283 139.415 372.878 140.352 367.836 140.352H350.774V126.392H364.217C366.328 126.392 368.127 126.026 369.614 125.293C371.122 124.539 372.274 123.473 373.072 122.094C373.89 120.715 374.3 119.089 374.3 117.214C374.3 115.319 373.89 113.703 373.072 112.367C372.274 111.01 371.122 109.976 369.614 109.265C368.127 108.532 366.328 108.166 364.217 108.166H357.883V160H339.916ZM397.825 108.295V93.8182H455.346V108.295H435.44V160H417.731V108.295H397.825ZM523.112 126.909C523.112 134.277 521.679 140.492 518.814 145.555C515.948 150.596 512.081 154.42 507.213 157.027C502.344 159.612 496.915 160.905 490.926 160.905C484.893 160.905 479.443 159.601 474.574 156.995C469.727 154.366 465.87 150.532 463.005 145.49C460.161 140.428 458.74 134.234 458.74 126.909C458.74 119.541 460.161 113.337 463.005 108.295C465.87 103.233 469.727 99.4087 474.574 96.8235C479.443 94.2167 484.893 92.9133 490.926 92.9133C496.915 92.9133 502.344 94.2167 507.213 96.8235C512.081 99.4087 515.948 103.233 518.814 108.295C521.679 113.337 523.112 119.541 523.112 126.909ZM504.627 126.909C504.627 122.945 504.099 119.606 503.044 116.891C502.01 114.155 500.469 112.087 498.423 110.687C496.398 109.265 493.899 108.554 490.926 108.554C487.953 108.554 485.443 109.265 483.396 110.687C481.371 112.087 479.831 114.155 478.775 116.891C477.741 119.606 477.224 122.945 477.224 126.909C477.224 130.873 477.741 134.223 478.775 136.959C479.831 139.674 481.371 141.742 483.396 143.164C485.443 144.564 487.953 145.264 490.926 145.264C493.899 145.264 496.398 144.564 498.423 143.164C500.469 141.742 502.01 139.674 503.044 136.959C504.099 134.223 504.627 130.873 504.627 126.909Z" fill="white"/>
<path d="M54.3168 217.175L51.483 228.659H0.325284L3.15909 217.175H54.3168ZM26.1278 274L1.81676 245.662L1.96591 234.327H13.8977C16.2592 234.327 18.1733 233.792 19.6399 232.723C21.1314 231.654 22.2251 230.3 22.9212 228.659C23.642 227.018 24.0149 225.328 24.0398 223.588C24.0149 220.903 23.2567 218.616 21.7653 216.727C20.2987 214.838 17.6761 213.893 13.8977 213.893H0.325284L3.75568 197.636H13.8977C20.4354 197.636 25.929 198.556 30.3786 200.396C34.853 202.21 38.2337 204.895 40.5206 208.45C42.8324 211.979 44.0007 216.33 44.0256 221.5C44.0007 225.999 43.3917 229.827 42.1985 232.984C41.0053 236.116 39.1783 238.789 36.7173 241.001C34.2564 243.213 31.0994 245.19 27.2465 246.93L26.4261 247.303L47.6051 273.254V274H26.1278ZM54.4659 197.636L51.483 209.419L8.23011 209.568L11.2131 197.636H54.4659ZM122.076 197.636V274H101.345V216.727H100.897L84.1929 226.72V209.121L102.986 197.636H122.076ZM229.817 226.273H208.787C208.638 224.533 208.24 222.954 207.594 221.537C206.973 220.12 206.103 218.902 204.984 217.883C203.89 216.839 202.56 216.044 200.994 215.497C199.428 214.925 197.651 214.639 195.662 214.639C192.182 214.639 189.236 215.484 186.825 217.175C184.439 218.865 182.624 221.289 181.381 224.446C180.163 227.603 179.554 231.393 179.554 235.818C179.554 240.491 180.176 244.407 181.419 247.564C182.686 250.696 184.513 253.057 186.9 254.648C189.286 256.214 192.157 256.997 195.513 256.997C197.427 256.997 199.142 256.761 200.659 256.289C202.175 255.792 203.492 255.083 204.611 254.163C205.73 253.244 206.637 252.137 207.333 250.845C208.054 249.527 208.539 248.048 208.787 246.408L229.817 246.557C229.568 249.788 228.661 253.082 227.095 256.438C225.529 259.769 223.304 262.851 220.421 265.685C217.562 268.494 214.02 270.756 209.794 272.471C205.568 274.186 200.659 275.044 195.066 275.044C188.056 275.044 181.767 273.54 176.198 270.532C170.655 267.525 166.268 263.1 163.036 257.258C159.829 251.417 158.226 244.27 158.226 235.818C158.226 227.317 159.867 220.158 163.148 214.341C166.429 208.499 170.854 204.087 176.422 201.104C181.99 198.096 188.205 196.592 195.066 196.592C199.888 196.592 204.325 197.251 208.377 198.569C212.429 199.886 215.984 201.812 219.041 204.348C222.099 206.859 224.56 209.953 226.424 213.632C228.288 217.311 229.419 221.525 229.817 226.273ZM239.223 274V197.636H272.184C277.852 197.636 282.811 198.668 287.062 200.731C291.313 202.794 294.619 205.765 296.98 209.643C299.342 213.521 300.522 218.169 300.522 223.588C300.522 229.057 299.304 233.668 296.868 237.422C294.457 241.175 291.064 244.009 286.689 245.923C282.339 247.837 277.255 248.794 271.439 248.794H251.751V232.686H267.262C269.699 232.686 271.774 232.388 273.489 231.791C275.229 231.17 276.559 230.188 277.479 228.846C278.424 227.503 278.896 225.751 278.896 223.588C278.896 221.401 278.424 219.623 277.479 218.256C276.559 216.864 275.229 215.845 273.489 215.199C271.774 214.527 269.699 214.192 267.262 214.192H259.954V274H239.223ZM283.967 238.95L303.058 274H280.537L261.893 238.95H283.967ZM383.337 235.818C383.337 244.32 381.684 251.491 378.377 257.333C375.071 263.15 370.609 267.562 364.991 270.57C359.374 273.553 353.109 275.044 346.199 275.044C339.239 275.044 332.95 273.54 327.332 270.532C321.739 267.5 317.289 263.075 313.983 257.258C310.702 251.417 309.061 244.27 309.061 235.818C309.061 227.317 310.702 220.158 313.983 214.341C317.289 208.499 321.739 204.087 327.332 201.104C332.95 198.096 339.239 196.592 346.199 196.592C353.109 196.592 359.374 198.096 364.991 201.104C370.609 204.087 375.071 208.499 378.377 214.341C381.684 220.158 383.337 227.317 383.337 235.818ZM362.009 235.818C362.009 231.244 361.4 227.391 360.181 224.259C358.988 221.102 357.211 218.716 354.849 217.1C352.513 215.46 349.629 214.639 346.199 214.639C342.768 214.639 339.873 215.46 337.511 217.1C335.174 218.716 333.397 221.102 332.179 224.259C330.986 227.391 330.389 231.244 330.389 235.818C330.389 240.392 330.986 244.257 332.179 247.414C333.397 250.547 335.174 252.933 337.511 254.574C339.873 256.189 342.768 256.997 346.199 256.997C349.629 256.997 352.513 256.189 354.849 254.574C357.211 252.933 358.988 250.547 360.181 247.414C361.4 244.257 362.009 240.392 362.009 235.818ZM392.929 274V197.636H425.89C431.558 197.636 436.517 198.668 440.768 200.731C445.019 202.794 448.325 205.765 450.686 209.643C453.048 213.521 454.228 218.169 454.228 223.588C454.228 229.057 453.01 233.668 450.574 237.422C448.163 241.175 444.77 244.009 440.395 245.923C436.045 247.837 430.961 248.794 425.145 248.794H405.457V232.686H420.968C423.405 232.686 425.48 232.388 427.195 231.791C428.935 231.17 430.265 230.188 431.185 228.846C432.13 227.503 432.602 225.751 432.602 223.588C432.602 221.401 432.13 219.623 431.185 218.256C430.265 216.864 428.935 215.845 427.195 215.199C425.48 214.527 423.405 214.192 420.968 214.192H413.66V274H392.929ZM437.673 238.95L456.764 274H434.243L415.599 238.95H437.673ZM463.065 274V197.636H518.101V214.341H483.797V227.466H515.267V244.17H483.797V257.295H517.952V274H463.065Z" fill="#13B440"/>
</svg>
