<svg width="522" height="248" viewBox="0 0 522 248" fill="none" xmlns="http://www.w3.org/2000/svg">
<path d="M23.8977 1.90909V79H2.96875V1.90909H23.8977ZM100.518 1.90909V79H83.0522L55.1971 38.4972H54.7454V79H33.8164V1.90909H51.5835L78.9869 42.2614H79.5891V1.90909H100.518ZM108.31 18.7727V1.90909H175.313V18.7727H152.125V79H131.498V18.7727H108.31ZM183.189 79V1.90909H238.749V18.7727H204.118V32.0227H235.888V48.8864H204.118V62.1364H238.599V79H183.189ZM249.129 79V1.90909H282.404C288.126 1.90909 293.132 2.95052 297.424 5.03338C301.715 7.11624 305.052 10.1151 307.436 14.0298C309.82 17.9446 311.012 22.6373 311.012 28.108C311.012 33.6288 309.783 38.2839 307.324 42.0732C304.889 45.8625 301.464 48.7232 297.047 50.6555C292.656 52.5878 287.524 53.554 281.652 53.554H261.777V37.2926H277.436C279.895 37.2926 281.99 36.9915 283.722 36.3892C285.479 35.7618 286.821 34.7706 287.75 33.4155C288.703 32.0604 289.18 30.2912 289.18 28.108C289.18 25.8996 288.703 24.1054 287.75 22.7251C286.821 21.3198 285.479 20.291 283.722 19.6385C281.99 18.9609 279.895 18.6222 277.436 18.6222H270.058V79H249.129ZM294.299 43.6165L313.572 79H290.836L272.015 43.6165H294.299ZM319.934 79V1.90909H375.493V18.7727H340.863V32.0227H372.632V48.8864H340.863V62.1364H375.343V79H319.934ZM427.43 26C427.229 23.4905 426.288 21.5331 424.607 20.1278C422.95 18.7225 420.428 18.0199 417.041 18.0199C414.883 18.0199 413.113 18.2834 411.733 18.8104C410.378 19.3123 409.374 20.0024 408.722 20.8807C408.069 21.759 407.731 22.7628 407.705 23.892C407.655 24.8205 407.818 25.6612 408.195 26.4141C408.596 27.1418 409.224 27.8068 410.077 28.4091C410.93 28.9863 412.022 29.5133 413.352 29.9901C414.682 30.4669 416.263 30.8935 418.095 31.2699L424.419 32.625C428.685 33.5284 432.336 34.7204 435.372 36.201C438.409 37.6816 440.893 39.4257 442.825 41.4332C444.758 43.4157 446.176 45.6491 447.079 48.1335C448.008 50.6179 448.484 53.3281 448.509 56.2642C448.484 61.3333 447.217 65.6245 444.708 69.1378C442.198 72.651 438.61 75.3236 433.942 77.1555C429.299 78.9875 423.716 79.9034 417.191 79.9034C410.491 79.9034 404.644 78.9122 399.65 76.9297C394.681 74.9472 390.817 71.8982 388.056 67.7827C385.321 63.642 383.941 58.3471 383.916 51.8977H403.791C403.916 54.2566 404.506 56.2391 405.56 57.8452C406.614 59.4512 408.094 60.6683 410.002 61.4964C411.934 62.3246 414.23 62.7386 416.89 62.7386C419.124 62.7386 420.993 62.4626 422.499 61.9105C424.004 61.3584 425.146 60.593 425.924 59.6143C426.702 58.6357 427.104 57.5189 427.129 56.2642C427.104 55.0848 426.715 54.0559 425.962 53.1776C425.234 52.2741 424.03 51.4711 422.348 50.7685C420.667 50.0407 418.396 49.3632 415.535 48.7358L407.856 47.0795C401.03 45.599 395.647 43.1271 391.708 39.6641C387.793 36.1759 385.848 31.4205 385.873 25.3977C385.848 20.5043 387.153 16.2256 389.788 12.5618C392.448 8.87287 396.124 5.99952 400.817 3.94176C405.535 1.88399 410.943 0.855111 417.041 0.855111C423.264 0.855111 428.647 1.89654 433.189 3.9794C437.731 6.06226 441.232 8.99834 443.691 12.7876C446.176 16.5518 447.43 20.956 447.455 26H427.43ZM454.363 18.7727V1.90909H521.366V18.7727H498.178V79H477.55V18.7727H454.363ZM0.859375 140V95.6364H20.0085C23.3011 95.6364 26.1822 96.2357 28.6516 97.4343C31.1211 98.6329 33.0418 100.359 34.4137 102.612C35.7856 104.864 36.4716 107.565 36.4716 110.713C36.4716 113.89 35.764 116.569 34.3487 118.75C32.9479 120.93 30.9767 122.577 28.435 123.689C25.9078 124.801 22.9545 125.357 19.5753 125.357H8.13778V115.999H17.1491C18.5644 115.999 19.7702 115.825 20.7667 115.479C21.7776 115.118 22.5502 114.547 23.0845 113.767C23.6333 112.988 23.9077 111.969 23.9077 110.713C23.9077 109.442 23.6333 108.41 23.0845 107.615C22.5502 106.807 21.7776 106.215 20.7667 105.839C19.7702 105.449 18.5644 105.254 17.1491 105.254H12.9034V140H0.859375ZM26.8537 119.638L37.9446 140H24.8608L14.0298 119.638H26.8537ZM53.1296 140H40.1325L54.7759 95.6364H71.239L85.8825 140H72.8853L63.1808 107.854H62.8342L53.1296 140ZM50.7035 122.497H75.1381V131.509H50.7035V122.497ZM83.3426 105.341V95.6364H121.901V105.341H108.557V140H96.6863V105.341H83.3426ZM126.434 140V95.6364H158.407V105.341H138.478V112.966H156.76V122.67H138.478V130.295H158.32V140H126.434ZM188.056 140H175.059L189.703 95.6364H206.166L220.809 140H207.812L198.108 107.854H197.761L188.056 140ZM185.63 122.497H210.065V131.509H185.63V122.497ZM247.269 109.5C247.154 108.056 246.612 106.929 245.645 106.121C244.691 105.312 243.24 104.908 241.291 104.908C240.049 104.908 239.031 105.059 238.236 105.363C237.456 105.651 236.879 106.049 236.503 106.554C236.128 107.059 235.933 107.637 235.918 108.287C235.89 108.821 235.983 109.305 236.2 109.738C236.431 110.157 236.792 110.54 237.283 110.886C237.774 111.219 238.402 111.522 239.168 111.796C239.933 112.071 240.843 112.316 241.897 112.533L245.536 113.312C247.991 113.832 250.093 114.518 251.84 115.37C253.587 116.222 255.017 117.226 256.129 118.381C257.241 119.522 258.057 120.808 258.577 122.237C259.111 123.667 259.386 125.227 259.4 126.916C259.386 129.833 258.656 132.303 257.212 134.325C255.768 136.346 253.703 137.884 251.017 138.939C248.345 139.993 245.132 140.52 241.377 140.52C237.521 140.52 234.157 139.949 231.283 138.809C228.423 137.668 226.199 135.913 224.611 133.545C223.037 131.162 222.243 128.115 222.228 124.403H233.666C233.738 125.761 234.077 126.902 234.684 127.826C235.29 128.75 236.142 129.451 237.24 129.927C238.352 130.404 239.673 130.642 241.204 130.642C242.489 130.642 243.565 130.483 244.432 130.165C245.298 129.848 245.955 129.407 246.403 128.844C246.85 128.281 247.082 127.638 247.096 126.916C247.082 126.237 246.858 125.645 246.424 125.14C246.006 124.62 245.312 124.158 244.345 123.754C243.377 123.335 242.07 122.945 240.424 122.584L236.005 121.631C232.077 120.779 228.979 119.356 226.712 117.363C224.459 115.356 223.34 112.619 223.354 109.153C223.34 106.337 224.091 103.875 225.607 101.767C227.138 99.6438 229.254 97.9903 231.954 96.8061C234.669 95.6219 237.781 95.0298 241.291 95.0298C244.872 95.0298 247.97 95.6291 250.584 96.8278C253.197 98.0264 255.212 99.716 256.627 101.897C258.057 104.063 258.779 106.597 258.793 109.5H247.269ZM276.134 140V95.6364H288.178V130.295H306.114V140H276.134ZM352.232 117.818C352.232 122.757 351.272 126.923 349.351 130.317C347.43 133.696 344.838 136.26 341.574 138.007C338.311 139.74 334.672 140.607 330.657 140.607C326.613 140.607 322.96 139.733 319.696 137.985C316.447 136.224 313.862 133.653 311.941 130.274C310.035 126.88 309.082 122.728 309.082 117.818C309.082 112.879 310.035 108.72 311.941 105.341C313.862 101.947 316.447 99.3839 319.696 97.6509C322.96 95.9035 326.613 95.0298 330.657 95.0298C334.672 95.0298 338.311 95.9035 341.574 97.6509C344.838 99.3839 347.43 101.947 349.351 105.341C351.272 108.72 352.232 112.879 352.232 117.818ZM339.842 117.818C339.842 115.161 339.488 112.923 338.78 111.103C338.087 109.269 337.054 107.883 335.682 106.944C334.325 105.991 332.65 105.514 330.657 105.514C328.664 105.514 326.982 105.991 325.61 106.944C324.252 107.883 323.22 109.269 322.512 111.103C321.819 112.923 321.472 115.161 321.472 117.818C321.472 120.475 321.819 122.721 322.512 124.555C323.22 126.375 324.252 127.761 325.61 128.714C326.982 129.653 328.664 130.122 330.657 130.122C332.65 130.122 334.325 129.653 335.682 128.714C337.054 127.761 338.087 126.375 338.78 124.555C339.488 122.721 339.842 120.475 339.842 117.818ZM366.269 140L353.185 95.6364H366.616L372.681 122.93H373.028L380.219 95.6364H390.79L397.982 123.017H398.329L404.394 95.6364H417.824L404.741 140H393.217L385.678 115.219H385.332L377.793 140H366.269ZM445.4 140H432.403L447.046 95.6364H463.51L478.153 140H465.156L455.451 107.854H455.105L445.4 140ZM442.974 122.497H467.409V131.509H442.974V122.497ZM504.613 109.5C504.497 108.056 503.956 106.929 502.988 106.121C502.035 105.312 500.584 104.908 498.634 104.908C497.392 104.908 496.374 105.059 495.58 105.363C494.8 105.651 494.223 106.049 493.847 106.554C493.472 107.059 493.277 107.637 493.262 108.287C493.233 108.821 493.327 109.305 493.544 109.738C493.775 110.157 494.136 110.54 494.627 110.886C495.118 111.219 495.746 111.522 496.511 111.796C497.277 112.071 498.187 112.316 499.241 112.533L502.88 113.312C505.335 113.832 507.436 114.518 509.184 115.37C510.931 116.222 512.361 117.226 513.473 118.381C514.585 119.522 515.401 120.808 515.921 122.237C516.455 123.667 516.729 125.227 516.744 126.916C516.729 129.833 516 132.303 514.556 134.325C513.112 136.346 511.047 137.884 508.361 138.939C505.689 139.993 502.476 140.52 498.721 140.52C494.865 140.52 491.5 139.949 488.627 138.809C485.767 137.668 483.543 135.913 481.955 133.545C480.381 131.162 479.586 128.115 479.572 124.403H491.009C491.082 125.761 491.421 126.902 492.027 127.826C492.634 128.75 493.486 129.451 494.584 129.927C495.696 130.404 497.017 130.642 498.548 130.642C499.833 130.642 500.909 130.483 501.775 130.165C502.642 129.848 503.299 129.407 503.747 128.844C504.194 128.281 504.425 127.638 504.44 126.916C504.425 126.237 504.201 125.645 503.768 125.14C503.349 124.62 502.656 124.158 501.689 123.754C500.721 123.335 499.414 122.945 497.768 122.584L493.349 121.631C489.421 120.779 486.323 119.356 484.056 117.363C481.803 115.356 480.684 112.619 480.698 109.153C480.684 106.337 481.435 103.875 482.951 101.767C484.482 99.6438 486.598 97.9903 489.298 96.8061C492.013 95.6219 495.125 95.0298 498.634 95.0298C502.216 95.0298 505.313 95.6291 507.927 96.8278C510.541 98.0264 512.556 99.716 513.971 101.897C515.401 104.063 516.123 106.597 516.137 109.5H504.613Z" fill="white"/>
<path d="M32.0057 185.909V247H15.4205V201.182H15.0625L1.69886 209.176V195.097L16.733 185.909H32.0057ZM61.1641 247V185.909H87.5334C92.0675 185.909 96.0348 186.804 99.4354 188.594C102.836 190.384 105.481 192.899 107.37 196.141C109.259 199.382 110.204 203.17 110.204 207.506C110.204 211.881 109.229 215.669 107.281 218.871C105.352 222.072 102.637 224.538 99.1371 226.268C95.657 227.999 91.5902 228.864 86.9368 228.864H71.1868V215.977H83.5959C85.5447 215.977 87.2053 215.639 88.5774 214.963C89.9695 214.267 91.0334 213.283 91.7692 212.01C92.5249 210.737 92.9027 209.236 92.9027 207.506C92.9027 205.756 92.5249 204.264 91.7692 203.031C91.0334 201.778 89.9695 200.824 88.5774 200.168C87.2053 199.491 85.5447 199.153 83.5959 199.153H77.7493V247H61.1641ZM116.289 247V185.909H160.317V199.273H132.874V209.773H158.05V223.136H132.874V233.636H160.198V247H116.289ZM168.543 247V185.909H194.912C199.446 185.909 203.414 186.734 206.814 188.385C210.215 190.036 212.86 192.412 214.749 195.514C216.638 198.616 217.583 202.335 217.583 206.67C217.583 211.045 216.608 214.734 214.659 217.737C212.73 220.74 210.016 223.007 206.516 224.538C203.036 226.07 198.969 226.835 194.316 226.835H178.566V213.949H190.975C192.924 213.949 194.584 213.71 195.956 213.233C197.348 212.736 198.412 211.95 199.148 210.876C199.904 209.803 200.282 208.401 200.282 206.67C200.282 204.92 199.904 203.499 199.148 202.405C198.412 201.291 197.348 200.476 195.956 199.959C194.584 199.422 192.924 199.153 190.975 199.153H185.128V247H168.543ZM204.338 218.96L219.611 247H201.594L186.679 218.96H204.338ZM281.686 208.818H264.863C264.743 207.426 264.425 206.163 263.908 205.03C263.411 203.896 262.715 202.922 261.82 202.107C260.945 201.271 259.881 200.635 258.628 200.197C257.375 199.74 255.953 199.511 254.363 199.511C251.578 199.511 249.222 200.187 247.293 201.54C245.384 202.892 243.932 204.831 242.938 207.357C241.963 209.882 241.476 212.915 241.476 216.455C241.476 220.193 241.973 223.325 242.968 225.851C243.982 228.357 245.444 230.246 247.353 231.518C249.262 232.771 251.559 233.398 254.243 233.398C255.775 233.398 257.147 233.209 258.36 232.831C259.573 232.433 260.627 231.866 261.522 231.131C262.417 230.395 263.142 229.51 263.699 228.476C264.276 227.422 264.664 226.239 264.863 224.926L281.686 225.045C281.488 227.631 280.762 230.266 279.509 232.95C278.256 235.615 276.476 238.081 274.169 240.348C271.882 242.595 269.049 244.405 265.668 245.777C262.287 247.149 258.36 247.835 253.885 247.835C248.277 247.835 243.246 246.632 238.792 244.226C234.357 241.82 230.847 238.28 228.262 233.607C225.696 228.933 224.414 223.216 224.414 216.455C224.414 209.653 225.726 203.926 228.351 199.273C230.976 194.599 234.516 191.07 238.971 188.683C243.425 186.277 248.397 185.074 253.885 185.074C257.743 185.074 261.293 185.601 264.534 186.655C267.776 187.709 270.62 189.25 273.066 191.278C275.512 193.287 277.48 195.763 278.972 198.706C280.463 201.649 281.368 205.02 281.686 208.818ZM289.211 247V185.909H333.239V199.273H305.796V209.773H330.972V223.136H305.796V233.636H333.12V247H289.211ZM394.323 185.909V247H380.482L358.408 214.903H358.05V247H341.465V185.909H355.544L377.26 217.886H377.738V185.909H394.323ZM400.498 199.273V185.909H453.594V199.273H435.219V247H418.873V199.273H400.498Z" fill="#13B440"/>
</svg>
